<svg xmlns="http://www.w3.org/2000/svg" viewBox="0 0 360.48 359.76"><defs><style>.a{fill:#005247;}.b{fill:#008472;}.c{fill:#00d7b8;}</style></defs><title>icon-cropped</title><path class="a" d="M0.65,280c0,42.18-.32,79.72-0.32,79.72s53.59-10.48,63.58-80.5c0-28.59.09-41.7,0.16-47.21C60.82,232.51,17.1,239.41.65,280Zm63.42-48,0.2,0S64.17,224.06,64.07,232Z"/><path class="b" d="M78.65,165.83S28.92,183.1,9.29,271.19c1.78-3,9.82-17.58,25.44-22.8S221.7,185,221.7,185s69.4-16.14,72.72-91.44Z"/><path class="c" d="M360.43,0L53.69,103.44S-3.45,115.23.16,181.19V359.75H0.4S-6.26,208,78.41,166.07c17.84-5.89,216-72.24,216-72.24S362.67,76.28,360.43,0Z"/></svg>